<svg class="icon" viewBox="0 0 1024 1024" version="1.1" xmlns="http://www.w3.org/2000/svg" p-id="48942" height="128" width="128"><path d="M512 512m-448 0a448 448 0 1 0 896 0 448 448 0 1 0-896 0Z" fill="#55A7F7" p-id="48943"></path><path d="M256 256m64 0l384 0q64 0 64 64l0 384q0 64-64 64l-384 0q-64 0-64-64l0-384q0-64 64-64Z" fill="#E2BF7A" p-id="48944"></path><path d="M332 302h360v420H332z" fill="#FFFFFF" p-id="48945"></path><path d="M322 342h380v360H322z" fill="#E9EBF1" p-id="48946"></path><path d="M302 382h420v300H302z" fill="#FFFFFF" p-id="48947"></path><path d="M282 422h460v300H282z" fill="#E9EBF1" p-id="48948"></path><path d="M768 412.192V704c0 35.346-28.654 64-64 64H320c-35.346 0-64-28.654-64-64V412.187a32 32 0 0 0 15.27 27.278C380.543 506.488 460.787 540 512 540c51.212 0 131.456-33.512 240.73-100.535A32 32 0 0 0 768 412.192z" fill="#FFD786" p-id="48949"></path><path d="M512 604m-32 0a32 32 0 1 0 64 0 32 32 0 1 0-64 0Z" fill="#CBA559" p-id="48950"></path></svg>