<svg class="icon" viewBox="0 0 1024 1024" version="1.1" xmlns="http://www.w3.org/2000/svg" p-id="48529" height="128" width="128"><path d="M519.3728 512.4096m-450.816 0a450.816 450.816 0 1 0 901.632 0 450.816 450.816 0 1 0-901.632 0Z" fill="#E9ECFF" p-id="48530"></path><path d="M748.3392 771.6864h-425.472c-40.6528 0-73.728-33.0752-73.728-73.728V273.3568c0-13.4656 10.9056-24.3712 24.3712-24.3712s24.3712 10.9056 24.3712 24.3712v424.5504c0 13.7728 11.2128 24.9856 24.9856 24.9856h425.472c13.4656 0 24.3712 10.9056 24.3712 24.3712a24.3712 24.3712 0 0 1-24.3712 24.4224z" fill="#6C6CEA" p-id="48531"></path><path d="M433.7664 693.2992H356.7616a16.6912 16.6912 0 0 1-16.6912-16.6912V483.0208c0-9.216 7.4752-16.6912 16.6912-16.6912h77.056c9.216 0 16.6912 7.4752 16.6912 16.6912v193.5872a16.77312 16.77312 0 0 1-16.7424 16.6912zM588.1856 693.2992H511.1296a16.6912 16.6912 0 0 1-16.6912-16.6912V276.1216c0-9.216 7.4752-16.6912 16.6912-16.6912h77.056c9.216 0 16.6912 7.4752 16.6912 16.6912v400.4864a16.72704 16.72704 0 0 1-16.6912 16.6912z" fill="#757BF2" p-id="48532"></path><path d="M742.5536 693.2992h-77.056a16.6912 16.6912 0 0 1-16.6912-16.6912V330.4448c0-9.216 7.4752-16.6912 16.6912-16.6912h77.056c9.216 0 16.6912 7.4752 16.6912 16.6912v346.1632c0 9.216-7.4752 16.6912-16.6912 16.6912z" fill="#6C6CEA" p-id="48533"></path><path d="M634.2144 722.8928h-311.296c-13.7728 0-24.9856-11.2128-24.9856-24.9856V273.3568c0-13.4656-10.9056-24.3712-24.3712-24.3712s-24.3712 10.9056-24.3712 24.3712v424.5504c0 40.6528 33.0752 73.728 73.728 73.728h205.6192a445.7984 445.7984 0 0 0 105.6768-48.7424zM759.2448 330.4448c0-9.216-7.4752-16.6912-16.6912-16.6912h-77.056a16.6912 16.6912 0 0 0-16.6912 16.6912v346.1632c0 9.216 7.4752 16.6912 16.6912 16.6912H675.84a454.12864 454.12864 0 0 0 83.4048-87.3472V330.4448z" fill="#757BF2" p-id="48534"></path><path d="M271.0528 631.8592c9.0112 0 17.9712-0.3072 26.88-0.8192V273.3568c0-13.4656-10.9056-24.3712-24.3712-24.3712s-24.3712 10.9056-24.3712 24.3712v357.9392c7.2192 0.4096 14.5408 0.5632 21.8624 0.5632zM433.7664 466.3296H356.7616a16.6912 16.6912 0 0 0-16.6912 16.6912v143.5648a446.4128 446.4128 0 0 0 110.3872-31.8976V483.0208c0-9.216-7.4752-16.6912-16.6912-16.6912zM604.8256 484.096V276.1216c0-9.216-7.4752-16.6912-16.6912-16.6912H511.1296a16.6912 16.6912 0 0 0-16.6912 16.6912v296.5504a450.9952 450.9952 0 0 0 110.3872-88.576zM702.0032 313.7536h-36.5056a16.6912 16.6912 0 0 0-16.6912 16.6912v96.6656a446.09536 446.09536 0 0 0 53.1968-113.3568z" fill="#8486F8" p-id="48535"></path><path d="M297.9328 450.048V273.3568c0-13.4656-10.9056-24.3712-24.3712-24.3712s-24.3712 10.9056-24.3712 24.3712v189.6448c16.5888-3.3792 32.8704-7.7312 48.7424-12.9536zM512.3072 299.8272c10.1376-12.9024 19.6096-26.368 28.3136-40.3456h-29.4912a16.6912 16.6912 0 0 0-16.6912 16.6912v45.0048c6.1952-6.912 12.1344-14.0288 17.8688-21.3504" fill="#8D92F8" p-id="48536"></path></svg>