<?xml version="1.0" encoding="UTF-8"?>
<svg width="370px" height="199px" viewBox="0 0 370 199" version="1.1" xmlns="http://www.w3.org/2000/svg" xmlns:xlink="http://www.w3.org/1999/xlink">
    <!-- Generator: Sketch 54.1 (76490) - https://sketchapp.com -->
    <title>监控未获取数据</title>
    <desc>Created with Sketch.</desc>
    <defs>
        <linearGradient x1="-47.0190124%" y1="-185.963888%" x2="68.8688465%" y2="100%" id="linearGradient-1">
            <stop stop-color="#D2D2D2" offset="0%"></stop>
            <stop stop-color="#D2D2D2" stop-opacity="0" offset="100%"></stop>
        </linearGradient>
        <linearGradient x1="118.999979%" y1="-110.864112%" x2="54.5018665%" y2="55.5871768%" id="linearGradient-2">
            <stop stop-color="#D2D2D2" offset="0%"></stop>
            <stop stop-color="#D2D2D2" stop-opacity="0" offset="100%"></stop>
        </linearGradient>
        <linearGradient x1="50%" y1="-221.156912%" x2="50%" y2="100%" id="linearGradient-3">
            <stop stop-color="#D2D2D2" offset="0%"></stop>
            <stop stop-color="#D2D2D2" stop-opacity="0" offset="100%"></stop>
        </linearGradient>
        <linearGradient x1="100.080959%" y1="-97.780461%" x2="38.826306%" y2="104.736078%" id="linearGradient-4">
            <stop stop-color="#D2D2D2" offset="0%"></stop>
            <stop stop-color="#D2D2D2" stop-opacity="0" offset="100%"></stop>
        </linearGradient>
        <linearGradient x1="50%" y1="-230.116303%" x2="50%" y2="100%" id="linearGradient-5">
            <stop stop-color="#D2D2D2" offset="0%"></stop>
            <stop stop-color="#D2D2D2" stop-opacity="0" offset="100%"></stop>
        </linearGradient>
        <linearGradient x1="50%" y1="-169.203289%" x2="50%" y2="100%" id="linearGradient-6">
            <stop stop-color="#D2D2D2" offset="0%"></stop>
            <stop stop-color="#D2D2D2" stop-opacity="0" offset="100%"></stop>
        </linearGradient>
        <linearGradient x1="17.6602642%" y1="-3.2153214%" x2="83.7495315%" y2="91.9647381%" id="linearGradient-7">
            <stop stop-color="#F6F5F5" offset="0%"></stop>
            <stop stop-color="#D2D2D2" offset="100%"></stop>
        </linearGradient>
        <linearGradient x1="-13.2328231%" y1="-13.4157387%" x2="100%" y2="111.984982%" id="linearGradient-8">
            <stop stop-color="#FFFFFF" offset="0%"></stop>
            <stop stop-color="#478FFC" offset="100%"></stop>
        </linearGradient>
    </defs>
    <g id="设计规范" stroke="none" stroke-width="1" fill="none" fill-rule="evenodd">
        <g id="08-缺省页规范" transform="translate(-849.000000, -1969.000000)" fill-rule="nonzero">
            <g id="监控未获取数据" transform="translate(849.000000, 1969.000000)">
                <g id="编组-2备份-6">
                    <path d="M73.2592593,159.554082 C65.345679,155.973835 56.7654321,146.368897 59.1975309,137.331859 C60.4139859,137.020515 61.693852,137.516587 62.382716,138.566427 C62.382716,138.566427 76.1111111,160.010872 72.2592593,140.282477 C70.4444444,131.010872 67.3209877,122.047909 67.0740741,112.467662 C66.6666667,95.0602545 82.6419753,90.233094 87.2345679,109.467662 C87.8395062,112.010872 90.1604938,132.689884 95.4444444,130.319514 C96.1250336,129.961557 96.6773282,129.400632 97.0246914,128.714576 C99.7037037,124.319514 100.506173,117.862724 105.419753,116.368897 C109.728395,115.010872 113.975309,118.751613 116.296296,122.61581 C121,130.467662 127.296296,149.98618 117.666667,156.603464 C108.037037,163.220748 83.7407407,164.270131 73.345679,159.640501 L73.2592593,159.554082 Z" id="路径" fill="url(#linearGradient-1)"></path>
                    <path d="M273.185185,180.430625 C269.703704,172.467662 269.790123,159.591119 277.691358,154.504699 C278.808047,155.104911 279.411159,156.355993 279.185185,157.603464 C279.185185,157.603464 274.975309,182.726921 285.358025,165.504699 C290.296296,157.393588 294,148.665193 300.17284,141.393588 C311.518519,128.134329 326.641975,135.331859 317.148148,152.677538 C315.91358,154.973835 303.740741,171.862724 309.246914,173.665193 C309.992355,173.848515 310.775891,173.801158 311.493827,173.52939 C316.432099,172.0726 321.37037,167.825687 326.037037,169.973835 C330.135802,171.862724 330.777778,177.467662 329.91358,181.899761 C328.135802,190.875069 319.421721,200.91212 307.841474,199.356564 C296.014314,197.751626 277.777778,190.924452 273.222222,180.517045 L273.185185,180.430625 Z" id="路径" fill="url(#linearGradient-2)"></path>
                    <path d="M370.518519,199.356551 C323.962963,167.418279 258.17284,147.504699 185.259259,147.504699 C112.345679,147.504699 46.5555556,167.418279 0,199.356551 L370.518519,199.356551 Z" id="路径" fill="url(#linearGradient-3)"></path>
                    <path d="M293.469136,103.060255 C290.518519,106.763958 288.62963,112.010872 290.395062,116.70223 C291.617284,119.936798 295.296296,119.961489 295.037037,124.455316 C294.783185,126.699169 294.014206,128.854 292.790123,130.751613 C290.704251,134.400024 288.14732,137.758071 285.185185,140.739267 C287.654305,142.665262 288.910389,145.760781 288.481481,148.862724 C287.997231,151.941616 286.539107,154.784309 284.320988,156.973835 C283.667879,157.772484 282.816415,158.385539 281.851852,158.751613 C280.917648,158.967389 279.94655,158.967389 279.012346,158.751613 C274.419062,157.972041 269.959209,156.546384 265.765432,154.517045 C263.148148,153.270131 260.481481,151.566427 259.592593,148.850378 C258.574074,145.733094 260.19348,144.742546 261.961179,143.765863 L262.41743,143.513691 C263.3302,143.004636 264.22575,142.451348 264.765432,141.566427 C266.061728,139.442971 266.098765,136.603464 266.555556,134.233094 C267.222222,130.739267 266.234568,124.368897 270.604938,122.998526 C272.296296,122.467662 274.135802,122.591119 275.82716,122.047909 C279.501372,120.878499 281.022443,117.422242 282.495104,113.927564 L282.762795,113.292245 C283.611763,111.282231 284.486968,109.304653 285.790123,107.78865 C287.641975,105.628156 292.234568,104.566427 293.469136,103.060255 Z M282.802469,123.78865 C282.802469,123.78865 269.506173,139.294822 269.938272,153.628156 L274.234568,153.628156 C274.234568,153.628156 275.790123,136.344205 282.802469,123.78865 Z" id="形状结合" fill="url(#linearGradient-4)"></path>
                    <path d="M104.135802,22.0108718 L104.135802,22.0108718 C104.204481,17.2252075 100.786222,13.0986863 96.0713857,12.2755097 C91.3565496,11.4523331 86.7422233,14.1764226 85.1851852,18.7022298 C82.2145965,18.6439999 79.4492011,20.2121758 77.9742152,22.7913626 C76.4992294,25.3705494 76.5499916,28.54923 78.1065814,31.0800038 C79.6631712,33.6107776 82.4772299,35.0898519 85.4444444,34.9367977 L103.333333,34.9367977 C106.729866,34.891492 109.517593,32.2362321 109.72807,28.8459242 C109.938548,25.4556163 107.50065,22.4759385 104.135802,22.0108718 L104.135802,22.0108718 Z" id="路径" fill="url(#linearGradient-5)"></path>
                    <path d="M178.074074,12.2084027 L178.074074,12.1466743 C178.066799,6.23154854 173.804253,1.17965438 167.974706,0.177082054 C162.14516,-0.825490268 156.439779,2.51210807 154.45679,8.08494589 C148.848713,8.17358419 144.374325,12.7916841 144.462963,18.3997607 C144.551601,24.0078373 149.169701,28.4822262 154.777778,28.3935879 L177,28.3935879 C181.281476,28.4012178 184.829217,25.075029 185.097306,20.8019475 C185.365395,16.528866 182.261202,12.7853409 178.012346,12.2577854 L178.074074,12.2084027 Z" id="路径" fill="url(#linearGradient-6)"></path>
                </g>
                <rect id="矩形" fill="url(#linearGradient-7)" x="133.703704" y="46.2345679" width="97.9876543" height="121.839506" rx="10.61"></rect>
                <rect id="矩形" fill="#FFFFFF" opacity="0.6" x="140.82716" y="53" width="83.7654321" height="108.333333" rx="7.11"></rect>
                <rect id="矩形" fill="#E5E5E5" x="159.160494" y="43.5432099" width="47.0740741" height="11.4197531" rx="2"></rect>
                <path d="M199.444444,96.8395062 L211.654321,96.8395062 C212.677071,96.8395062 213.506214,97.6686085 213.506214,98.691358 L213.506214,98.691358 C213.509461,99.1846352 213.315809,99.6588388 212.968162,100.008803 C212.620516,100.358767 212.147609,100.555556 211.654321,100.555556 L199.444444,100.555556 C198.504012,100.446783 197.794436,99.6504054 197.794436,98.7037037 C197.794436,97.757002 198.504012,96.9606244 199.444444,96.8518519 L199.444444,96.8395062 Z" id="路径" fill="#FFFFFF"></path>
                <path d="M153.753086,96.8395062 L191.82716,96.8395062 C192.767593,96.9482788 193.477168,97.7446563 193.477168,98.691358 C193.477168,99.6380598 192.767593,100.434437 191.82716,100.54321 L153.753086,100.54321 C153.040425,100.625638 152.343696,100.291798 151.961412,99.6847231 C151.579128,99.0776485 151.579128,98.3050675 151.961412,97.697993 C152.343696,97.0909184 153.040425,96.7570781 153.753086,96.8395062 Z" id="路径" fill="#FFFFFF"></path>
                <path d="M171.049383,78.3209877 L211.654321,78.3209877 C212.677071,78.3209877 213.506214,79.15009 213.506214,80.1728395 L213.506214,80.1728395 C213.509461,80.6661167 213.315809,81.1403203 212.968162,81.4902846 C212.620516,81.8402489 212.147609,82.037037 211.654321,82.037037 L171.049383,82.037037 C170.108951,81.9282644 169.399375,81.1318869 169.399375,80.1851852 C169.399375,79.2384834 170.108951,78.4421059 171.049383,78.3333333 L171.049383,78.3209877 Z" id="路径" fill="#D0D0D0"></path>
                <path d="M153.753086,78.3209877 L163.432099,78.3209877 C164.372531,78.4297602 165.082107,79.2261378 165.082107,80.1728395 C165.082107,81.1195412 164.372531,81.9159188 163.432099,82.0246914 L153.753086,82.0246914 C153.040425,82.1071194 152.343696,81.7732791 151.961412,81.1662046 C151.579128,80.55913 151.579128,79.786549 151.961412,79.1794745 C152.343696,78.5723999 153.040425,78.2385596 153.753086,78.3209877 L153.753086,78.3209877 Z" id="路径" fill="#D0D0D0"></path>
                <path d="M182.592593,114.679012 L211.654321,114.679012 C212.677071,114.679012 213.506173,115.508115 213.506173,116.530864 L213.506173,116.530864 C213.506173,117.55563 212.679064,118.388275 211.654321,118.395062 L182.592593,118.395062 C181.65216,118.286289 180.942585,117.489912 180.942585,116.54321 C180.942585,115.596508 181.65216,114.800131 182.592593,114.691358 L182.592593,114.679012 Z" id="路径" fill="#FFFFFF"></path>
                <path d="M153.753086,114.679012 L175.160494,114.679012 C175.873155,114.596584 176.569885,114.930425 176.952168,115.537499 C177.334452,116.144574 177.334452,116.917155 176.952168,117.524229 C176.569885,118.131304 175.873155,118.465144 175.160494,118.382716 L153.753086,118.382716 C153.040425,118.465144 152.343696,118.131304 151.961412,117.524229 C151.579128,116.917155 151.579128,116.144574 151.961412,115.537499 C152.343696,114.930425 153.040425,114.596584 153.753086,114.679012 L153.753086,114.679012 Z" id="路径" fill="#FFFFFF"></path>
                <path d="M153.753086,132.518519 L177.506173,132.518519 C178.528922,132.518519 179.358025,133.347621 179.358025,134.37037 C179.358025,135.39312 178.528922,136.222222 177.506173,136.222222 L153.753086,136.222222 C152.730337,136.222222 151.901235,135.39312 151.901235,134.37037 C151.901235,133.347621 152.730337,132.518519 153.753086,132.518519 Z" id="路径" fill="#FFFFFF"></path>
                <circle id="椭圆形" fill="url(#linearGradient-8)" cx="217.259259" cy="144.296296" r="29.0246914"></circle>
                <path d="M225.098765,157.320988 C224.478297,157.320988 223.975309,156.817999 223.975309,156.197531 L223.975309,138.098765 C223.975309,137.478297 224.478297,136.975309 225.098765,136.975309 L230.444444,136.975309 C230.741281,136.975309 231.025784,137.094047 231.234516,137.305098 C231.443248,137.51615 231.558854,137.801947 231.555624,138.098765 L231.555624,156.197531 C231.558854,156.494349 231.443248,156.780147 231.234516,156.991198 C231.025784,157.20225 230.741281,157.320988 230.444444,157.320988 L225.098765,157.320988 Z M213.444376,156.197531 L213.444376,129.91358 C213.444376,129.299931 213.941906,128.8024 214.555556,128.8024 L219.91358,128.8024 C220.210398,128.799171 220.496196,128.914776 220.707247,129.123509 C220.918299,129.332241 221.037037,129.616744 221.037037,129.91358 L221.037037,156.197531 C221.037037,156.817999 220.534048,157.320988 219.91358,157.320988 L214.555556,157.320988 C214.258719,157.320988 213.974216,157.20225 213.765484,156.991198 C213.556752,156.780147 213.441146,156.494349 213.444376,156.197531 L213.444376,156.197531 Z M202.950617,156.197531 L202.950617,142.617284 C202.950617,141.996816 203.453606,141.493827 204.074074,141.493827 L209.419753,141.493827 C210.040221,141.493827 210.54321,141.996816 210.54321,142.617284 L210.54321,156.197531 C210.54321,156.817999 210.040221,157.320988 209.419753,157.320988 L204.074074,157.320988 C203.453606,157.320988 202.950617,156.817999 202.950617,156.197531 L202.950617,156.197531 Z" id="形状" fill="#FFFFFF"></path>
            </g>
        </g>
    </g>
</svg>