<?xml version="1.0" encoding="UTF-8"?>
<svg width="370px" height="199px" viewBox="0 0 370 199" version="1.1" xmlns="http://www.w3.org/2000/svg" xmlns:xlink="http://www.w3.org/1999/xlink">
    <!-- Generator: Sketch 54.1 (76490) - https://sketchapp.com -->
    <title>图片加载失败</title>
    <desc>Created with Sketch.</desc>
    <defs>
        <linearGradient x1="-47.0190124%" y1="-185.963888%" x2="68.8688465%" y2="100%" id="linearGradient-1">
            <stop stop-color="#D2D2D2" offset="0%"></stop>
            <stop stop-color="#D2D2D2" stop-opacity="0" offset="100%"></stop>
        </linearGradient>
        <linearGradient x1="118.999979%" y1="-110.864112%" x2="54.5018665%" y2="55.5871768%" id="linearGradient-2">
            <stop stop-color="#D2D2D2" offset="0%"></stop>
            <stop stop-color="#D2D2D2" stop-opacity="0" offset="100%"></stop>
        </linearGradient>
        <linearGradient x1="50%" y1="-221.156912%" x2="50%" y2="100%" id="linearGradient-3">
            <stop stop-color="#D2D2D2" offset="0%"></stop>
            <stop stop-color="#D2D2D2" stop-opacity="0" offset="100%"></stop>
        </linearGradient>
        <linearGradient x1="100.080959%" y1="-97.780461%" x2="38.826306%" y2="104.736078%" id="linearGradient-4">
            <stop stop-color="#D2D2D2" offset="0%"></stop>
            <stop stop-color="#D2D2D2" stop-opacity="0" offset="100%"></stop>
        </linearGradient>
        <linearGradient x1="50%" y1="-230.116303%" x2="50%" y2="100%" id="linearGradient-5">
            <stop stop-color="#D2D2D2" offset="0%"></stop>
            <stop stop-color="#D2D2D2" stop-opacity="0" offset="100%"></stop>
        </linearGradient>
        <linearGradient x1="50%" y1="-169.203289%" x2="50%" y2="100%" id="linearGradient-6">
            <stop stop-color="#D2D2D2" offset="0%"></stop>
            <stop stop-color="#D2D2D2" stop-opacity="0" offset="100%"></stop>
        </linearGradient>
        <linearGradient x1="51.7678494%" y1="23.4547157%" x2="53.8444012%" y2="67.1799155%" id="linearGradient-7">
            <stop stop-color="#E4E4E4" offset="0%"></stop>
            <stop stop-color="#E5E5E5" offset="100%"></stop>
        </linearGradient>
        <linearGradient x1="51.7678494%" y1="23.4547157%" x2="53.8444012%" y2="67.1799155%" id="linearGradient-8">
            <stop stop-color="#EFEFEF" offset="0%"></stop>
            <stop stop-color="#F9F9F9" offset="100%"></stop>
        </linearGradient>
        <linearGradient x1="52.3969102%" y1="23.4547157%" x2="55.2123695%" y2="67.1799155%" id="linearGradient-9">
            <stop stop-color="#ECECEC" offset="0%"></stop>
            <stop stop-color="#E9E9E9" offset="100%"></stop>
        </linearGradient>
        <linearGradient x1="50%" y1="7.70186176%" x2="50%" y2="100%" id="linearGradient-10">
            <stop stop-color="#F4F4F4" offset="0%"></stop>
            <stop stop-color="#F6F6F6" offset="100%"></stop>
        </linearGradient>
        <linearGradient x1="50%" y1="0%" x2="50%" y2="91.4439886%" id="linearGradient-11">
            <stop stop-color="#E2E2E2" offset="0%"></stop>
            <stop stop-color="#ECEBEB" offset="100%"></stop>
        </linearGradient>
        <linearGradient x1="50%" y1="0%" x2="50%" y2="100%" id="linearGradient-12">
            <stop stop-color="#DCDBDB" offset="0%"></stop>
            <stop stop-color="#F3F3F3" offset="100%"></stop>
        </linearGradient>
        <linearGradient x1="50%" y1="0%" x2="50%" y2="100%" id="linearGradient-13">
            <stop stop-color="#BCEFEE" offset="0%"></stop>
            <stop stop-color="#42D9D9" offset="100%"></stop>
        </linearGradient>
        <linearGradient x1="-13.2328231%" y1="4.59583201%" x2="100%" y2="94.3797804%" id="linearGradient-14">
            <stop stop-color="#FFFFFF" offset="0%"></stop>
            <stop stop-color="#478FFC" offset="100%"></stop>
        </linearGradient>
    </defs>
    <g id="设计规范" stroke="none" stroke-width="1" fill="none" fill-rule="evenodd">
        <g id="08-缺省页规范" transform="translate(-849.000000, -1563.000000)" fill-rule="nonzero">
            <g id="图片加载失败" transform="translate(849.000000, 1563.000000)">
                <g id="编组-2备份-5">
                    <path d="M73.2592593,159.554082 C65.345679,155.973835 56.7654321,146.368897 59.1975309,137.331859 C60.4139859,137.020515 61.693852,137.516587 62.382716,138.566427 C62.382716,138.566427 76.1111111,160.010872 72.2592593,140.282477 C70.4444444,131.010872 67.3209877,122.047909 67.0740741,112.467662 C66.6666667,95.0602545 82.6419753,90.233094 87.2345679,109.467662 C87.8395062,112.010872 90.1604938,132.689884 95.4444444,130.319514 C96.1250336,129.961557 96.6773282,129.400632 97.0246914,128.714576 C99.7037037,124.319514 100.506173,117.862724 105.419753,116.368897 C109.728395,115.010872 113.975309,118.751613 116.296296,122.61581 C121,130.467662 127.296296,149.98618 117.666667,156.603464 C108.037037,163.220748 83.7407407,164.270131 73.345679,159.640501 L73.2592593,159.554082 Z" id="路径" fill="url(#linearGradient-1)"></path>
                    <path d="M273.185185,180.430625 C269.703704,172.467662 269.790123,159.591119 277.691358,154.504699 C278.808047,155.104911 279.411159,156.355993 279.185185,157.603464 C279.185185,157.603464 274.975309,182.726921 285.358025,165.504699 C290.296296,157.393588 294,148.665193 300.17284,141.393588 C311.518519,128.134329 326.641975,135.331859 317.148148,152.677538 C315.91358,154.973835 303.740741,171.862724 309.246914,173.665193 C309.992355,173.848515 310.775891,173.801158 311.493827,173.52939 C316.432099,172.0726 321.37037,167.825687 326.037037,169.973835 C330.135802,171.862724 330.777778,177.467662 329.91358,181.899761 C328.135802,190.875069 319.421721,200.91212 307.841474,199.356564 C296.014314,197.751626 277.777778,190.924452 273.222222,180.517045 L273.185185,180.430625 Z" id="路径" fill="url(#linearGradient-2)"></path>
                    <path d="M370.518519,199.356551 C323.962963,167.418279 258.17284,147.504699 185.259259,147.504699 C112.345679,147.504699 46.5555556,167.418279 0,199.356551 L370.518519,199.356551 Z" id="路径" fill="url(#linearGradient-3)"></path>
                    <path d="M293.469136,103.060255 C290.518519,106.763958 288.62963,112.010872 290.395062,116.70223 C291.617284,119.936798 295.296296,119.961489 295.037037,124.455316 C294.783185,126.699169 294.014206,128.854 292.790123,130.751613 C290.704251,134.400024 288.14732,137.758071 285.185185,140.739267 C287.654305,142.665262 288.910389,145.760781 288.481481,148.862724 C287.997231,151.941616 286.539107,154.784309 284.320988,156.973835 C283.667879,157.772484 282.816415,158.385539 281.851852,158.751613 C280.917648,158.967389 279.94655,158.967389 279.012346,158.751613 C274.419062,157.972041 269.959209,156.546384 265.765432,154.517045 C263.148148,153.270131 260.481481,151.566427 259.592593,148.850378 C258.574074,145.733094 260.19348,144.742546 261.961179,143.765863 L262.41743,143.513691 C263.3302,143.004636 264.22575,142.451348 264.765432,141.566427 C266.061728,139.442971 266.098765,136.603464 266.555556,134.233094 C267.222222,130.739267 266.234568,124.368897 270.604938,122.998526 C272.296296,122.467662 274.135802,122.591119 275.82716,122.047909 C279.501372,120.878499 281.022443,117.422242 282.495104,113.927564 L282.762795,113.292245 C283.611763,111.282231 284.486968,109.304653 285.790123,107.78865 C287.641975,105.628156 292.234568,104.566427 293.469136,103.060255 Z M282.802469,123.78865 C282.802469,123.78865 269.506173,139.294822 269.938272,153.628156 L274.234568,153.628156 C274.234568,153.628156 275.790123,136.344205 282.802469,123.78865 Z" id="形状结合" fill="url(#linearGradient-4)"></path>
                    <path d="M104.135802,22.0108718 L104.135802,22.0108718 C104.204481,17.2252075 100.786222,13.0986863 96.0713857,12.2755097 C91.3565496,11.4523331 86.7422233,14.1764226 85.1851852,18.7022298 C82.2145965,18.6439999 79.4492011,20.2121758 77.9742152,22.7913626 C76.4992294,25.3705494 76.5499916,28.54923 78.1065814,31.0800038 C79.6631712,33.6107776 82.4772299,35.0898519 85.4444444,34.9367977 L103.333333,34.9367977 C106.729866,34.891492 109.517593,32.2362321 109.72807,28.8459242 C109.938548,25.4556163 107.50065,22.4759385 104.135802,22.0108718 L104.135802,22.0108718 Z" id="路径" fill="url(#linearGradient-5)"></path>
                    <path d="M178.074074,12.2084027 L178.074074,12.1466743 C178.066799,6.23154854 173.804253,1.17965438 167.974706,0.177082054 C162.14516,-0.825490268 156.439779,2.51210807 154.45679,8.08494589 C148.848713,8.17358419 144.374325,12.7916841 144.462963,18.3997607 C144.551601,24.0078373 149.169701,28.4822262 154.777778,28.3935879 L177,28.3935879 C181.281476,28.4012178 184.829217,25.075029 185.097306,20.8019475 C185.365395,16.528866 182.261202,12.7853409 178.012346,12.2577854 L178.074074,12.2084027 Z" id="路径" fill="url(#linearGradient-6)"></path>
                </g>
                <g id="编组-9" transform="translate(129.000000, 59.000000)">
                    <polygon id="路径-87" fill="url(#linearGradient-7)" points="96.0280038 7 130 17.1054154 108.457043 120 66.0483871 104.061355 82.019092 83.4802684 74.263248 40.9550637"></polygon>
                    <polygon id="路径-87备份" fill="url(#linearGradient-8)" points="92.8828425 6 126.854839 16.1054154 105.311882 119 62.9032258 103.061355 78.8739307 82.4802684 71.1180867 39.9550637"></polygon>
                    <ellipse id="椭圆形" fill="#E4E2E2" cx="99.5967742" cy="38" rx="10.483871" ry="12"></ellipse>
                    <polygon id="路径-15" fill="url(#linearGradient-9)" points="3.14516129 1 72.3387097 1 57.8951214 37.322057 72.3387097 78.3951638 61.6689863 106 3.14516129 106"></polygon>
                    <polygon id="路径-15备份" fill="url(#linearGradient-10)" points="2.38375627e-13 0 69.1935484 0 54.7499601 36.322057 69.1935484 77.3951638 58.523825 105 2.38375627e-13 105"></polygon>
                    <polygon id="路径-65" fill="url(#linearGradient-11)" points="2.38375627e-13 88.9028412 41.3374502 38 71.2903226 77.364438 60.6721066 104.641823 2.38375627e-13 105"></polygon>
                    <polygon id="路径-88" fill="url(#linearGradient-12)" points="106.935484 109.193236 82.8773653 64 75.1065597 67.9356442 77.9474096 83.4498189 61.8548387 103.484505 104.587098 119"></polygon>
                </g>
                <g id="警告" transform="translate(206.000000, 119.000000)" fill="url(#linearGradient-14)">
                    <path d="M6.4523699,55 C4.17015157,54.9994242 1.86529319,54.9340004 0.588597718,52.609693 C-0.652178451,50.3508093 0.277659892,48.2870453 1.4521849,46.3327529 C9.98668443,32.1326261 18.527497,17.936314 27.0915302,3.75396469 C30.1034547,-1.23350081 35.7996035,-1.26185832 38.767554,3.73230071 C47.0927056,17.7398267 55.4005144,31.7582207 63.5980981,45.8388717 C64.4798264,47.3529751 64.8951842,49.2891303 64.993291,51.0583793 C65.120859,53.363038 63.4151637,54.8925438 61.0739506,54.9663165 L6.4523699,55 Z M36.6284324,23.5651341 C36.6284324,20.8549055 36.6662383,18.1441011 36.6168946,15.4348801 C36.5745897,13.1001365 34.7017063,11.2871997 32.4548993,11.2957343 C30.2464063,11.3044013 28.5076942,13.0543614 28.4949229,15.3990374 C28.4661874,20.7109587 28.4658246,26.02324 28.4949229,31.3348735 C28.5084198,33.7423822 30.2925571,35.544523 32.5498134,35.5456032 C34.8466897,35.5468261 36.5862,33.8006086 36.6221193,31.3704283 C36.6606509,28.7692393 36.630827,26.1668988 36.6284324,23.5651341 Z M36.500429,43.2446641 C36.5187152,40.9769277 34.7896542,39.263602 32.4847232,39.2660465 C30.17718,39.2682803 28.4346946,40.9764239 28.4409905,43.22883 C28.4473933,45.4658338 30.2238388,47.2404808 32.465784,47.2501616 C34.6982958,47.2594098 36.4821428,45.4885774 36.500429,43.2446641 Z" id="形状"></path>
                </g>
                <g id="警告" transform="translate(234.000000, 130.000000)" fill="#FFFFFF">
                    <path d="M8.62843236,12.5651341 C8.62843236,9.85490545 8.66623833,7.14410107 8.61689464,4.43488009 C8.57458968,2.10013648 6.7017063,0.287199678 4.45489932,0.295734286 C2.24640627,0.30440131 0.507694198,2.05436143 0.494922889,4.39903736 C0.466187445,9.71095874 0.465824624,15.02324 0.494922889,20.3348735 C0.50841984,22.7423822 2.29255714,24.544523 4.54981337,24.5456032 C6.84668968,24.5468261 8.58619996,22.8006086 8.62211927,20.3704283 C8.66065088,17.7692393 8.63082698,15.1668988 8.62843236,12.5651341 Z M8.50042901,32.2446641 C8.5187152,29.9769277 6.78965418,28.263602 4.48472323,28.2660465 C2.17717998,28.2682803 0.434694559,29.9764239 0.44099055,32.22883 C0.447393303,34.4658338 2.22383879,36.2404808 4.46578396,36.2501616 C6.69829578,36.2594098 8.48214282,34.4885774 8.50042901,32.2446641 Z" id="形状"></path>
                </g>
            </g>
        </g>
    </g>
</svg>